<svg xmlns="http://www.w3.org/2000/svg" xmlns:xlink="http://www.w3.org/1999/xlink" width="1330" height="754.72"><rect width="1330" height="754.72" rx="5" ry="5" class="a"/><svg y="0%" x="0%"><circle cx="20" cy="20" r="6" fill="#ff5f58"/><circle cx="40" cy="20" r="6" fill="#ffbd2e"/><circle cx="60" cy="20" r="6" fill="#18c132"/></svg><svg height="694.72" viewBox="0 0 129 69.472" width="1290" x="15" xmlns="http://www.w3.org/2000/svg" xmlns:xlink="http://www.w3.org/1999/xlink" y="50"><style>@keyframes i{0%{transform:translateX(0)}.06%{transform:translateX(-129px)}11.3%{transform:translateX(-258px)}12.05%{transform:translateX(-387px)}12.64%{transform:translateX(-516px)}12.69%{transform:translateX(-774px)}22.55%{transform:translateX(-1032px)}23.61%{transform:translateX(-1290px)}31.74%{transform:translateX(-1419px)}32.28%{transform:translateX(-1548px)}32.71%{transform:translateX(-1677px)}43.86%{transform:translateX(-1935px)}45.98%{transform:translateX(-2064px)}46.1%{transform:translateX(-2193px)}46.89%{transform:translateX(-2322px)}47.88%{transform:translateX(-2451px)}48.6%{transform:translateX(-2580px)}49.73%{transform:translateX(-2709px)}50.66%{transform:translateX(-2838px)}51.69%{transform:translateX(-2967px)}54.18%{transform:translateX(-3225px)}59.04%{transform:translateX(-3354px)}59.72%{transform:translateX(-3483px)}60.4%{transform:translateX(-3612px)}60.47%{transform:translateX(-3870px)}64.16%{transform:translateX(-3999px)}64.45%{transform:translateX(-4128px)}65.23%{transform:translateX(-4257px)}91.6%{transform:translateX(-4386px)}92.37%{transform:translateX(-4515px)}93.01%{transform:translateX(-4644px)}93.68%{transform:translateX(-4773px)}to{transform:translateX(-4902px)}}.a{fill:#fff}.f{fill:#000}</style><g font-size="1.67" font-family="Monaco,Consolas,Menlo,'Bitstream Vera Sans Mono','Powerline Symbols',monospace"><defs><symbol id="1"><text y="1.67" class="f">bash-3.2$</text></symbol><symbol id="2"><text y="1.67" class="f">bash-3.2$</text><text x="10.02" y="1.67" class="f">l</text></symbol><symbol id="3"><text y="1.67" class="f">bash-3.2$</text><text x="10.02" y="1.67" class="f">ls</text></symbol><symbol id="4"><text y="1.67" class="f">Blog-master</text><text x="16.032" y="1.67" class="f">README.md</text><text x="32.064" y="1.67" class="f">blog_2</text><text x="48.096" y="1.67" class="f">blog_3</text><text x="64.128" y="1.67" class="f">blog_4</text></symbol><symbol id="5"><text y="1.67" class="f">bash-3.2$</text><text x="10.02" y="1.67" class="f">c</text></symbol><symbol id="6"><text y="1.67" class="f">bash-3.2$</text><text x="10.02" y="1.67" class="f">cd</text></symbol><symbol id="7"><text y="1.67" class="f">bash-3.2$</text><text x="10.02" y="1.67" class="f">cd</text><text x="13.026" y="1.67" class="f">work/</text></symbol><symbol id="8"><text y="1.67" class="f">Centos</text><text x="32.064" y="1.67" class="f">cisco_base_demo</text><text x="64.128" y="1.67" class="f">foobar</text><text x="96.192" y="1.67" class="f">servicenow_demo</text></symbol><symbol id="9"><text y="1.67" class="f">ansible-playbooks-for-cisco-ios</text><text x="32.064" y="1.67" class="f">cisco_ios</text><text x="64.128" y="1.67" class="f">hconfig-remediation-ansible</text><text x="96.192" y="1.67" class="f">servicenow_network_tickets</text></symbol><symbol id="10"><text y="1.67" class="f">ansible_poc</text><text x="32.064" y="1.67" class="f">cloud_vpn</text><text x="64.128" y="1.67" class="f">interface_parser</text><text x="96.192" y="1.67" class="f">test</text></symbol><symbol id="11"><text y="1.67" class="f">ansiblepoc</text><text x="32.064" y="1.67" class="f">con-ans</text><text x="64.128" y="1.67" class="f">learnjs</text><text x="96.192" y="1.67" class="f">thenetwork.engineer</text></symbol><symbol id="12"><text y="1.67" class="f">backup_configs</text><text x="32.064" y="1.67" class="f">derek</text><text x="64.128" y="1.67" class="f">linklight</text><text x="96.192" y="1.67" class="f">tower</text></symbol><symbol id="13"><text y="1.67" class="f">book</text><text x="32.064" y="1.67" class="f">docker-ansible-playbook</text><text x="64.128" y="1.67" class="f">palo_alto</text><text x="96.192" y="1.67" class="f">vagrant-Zabbix</text></symbol><symbol id="14"><text y="1.67" class="f">christmas</text><text x="32.064" y="1.67" class="f">faas</text><text x="64.128" y="1.67" class="f">python_project</text><text x="96.192" y="1.67" class="f">zabbix</text></symbol><symbol id="a"><path fill="transparent" d="M0 0h129v32H0z"/></symbol><symbol id="b"><path fill="#929292" d="M0 0h1.102v2.171H0z"/></symbol></defs><path class="a" d="M0 0h129v69.472H0z"/><g style="animation-duration:21.600066s;animation-iteration-count:infinite;animation-name:i;animation-timing-function:steps(1,end)"><svg width="5031"><svg><use xlink:href="#a"/><use xlink:href="#b" x="-.004"/></svg><svg x="129"><use xlink:href="#a"/><use xlink:href="#b" x="9.996"/><use xlink:href="#1"/></svg><svg x="258"><use xlink:href="#a"/><use xlink:href="#b" x="10.996"/><use xlink:href="#2"/></svg><svg x="387"><use xlink:href="#a"/><use xlink:href="#b" x="11.996"/><use xlink:href="#3"/></svg><svg x="516"><use xlink:href="#a"/><use xlink:href="#b" x="-.004" y="2.146"/><use xlink:href="#3"/></svg><svg x="645"><use xlink:href="#a"/><use xlink:href="#b" x="-.004" y="4.317"/><use xlink:href="#3"/><use xlink:href="#4" y="2.171"/></svg><svg x="774"><use xlink:href="#a"/><use xlink:href="#b" x="9.996" y="4.317"/><use xlink:href="#3"/><use xlink:href="#4" y="2.171"/><use xlink:href="#1" y="4.342"/></svg><svg x="903"><use xlink:href="#a"/><use xlink:href="#b" x="-.004" y="6.488"/><use xlink:href="#3"/><use xlink:href="#4" y="2.171"/><use xlink:href="#1" y="4.342"/></svg><svg x="1032"><use xlink:href="#a"/><use xlink:href="#b" x="9.996" y="6.488"/><use xlink:href="#3"/><use xlink:href="#4" y="2.171"/><use xlink:href="#1" y="4.342"/><use xlink:href="#1" y="6.513"/></svg><svg x="1161"><use xlink:href="#a"/><use xlink:href="#b" x="-.004" y="8.659"/><use xlink:href="#3"/><use xlink:href="#4" y="2.171"/><use xlink:href="#1" y="4.342"/><use xlink:href="#1" y="6.513"/></svg><svg x="1290"><use xlink:href="#a"/><use xlink:href="#b" x="9.996" y="8.659"/><use xlink:href="#3"/><use xlink:href="#4" y="2.171"/><use xlink:href="#1" y="4.342"/><use xlink:href="#1" y="6.513"/><use xlink:href="#1" y="8.684"/></svg><svg x="1419"><use xlink:href="#a"/><use xlink:href="#b" x="10.996" y="8.659"/><use xlink:href="#3"/><use xlink:href="#4" y="2.171"/><use xlink:href="#1" y="4.342"/><use xlink:href="#1" y="6.513"/><use xlink:href="#5" y="8.684"/></svg><svg x="1548"><use xlink:href="#a"/><use xlink:href="#b" x="11.996" y="8.659"/><use xlink:href="#3"/><use xlink:href="#4" y="2.171"/><use xlink:href="#1" y="4.342"/><use xlink:href="#1" y="6.513"/><use xlink:href="#6" y="8.684"/></svg><svg x="1677"><use xlink:href="#a"/><use xlink:href="#b" x="12.996" y="8.659"/><use xlink:href="#3"/><use xlink:href="#4" y="2.171"/><use xlink:href="#1" y="4.342"/><use xlink:href="#1" y="6.513"/><use xlink:href="#6" y="8.684"/></svg><svg x="1806"><use xlink:href="#a"/><use xlink:href="#b" x="-.004" y="10.83"/><use xlink:href="#3"/><use xlink:href="#4" y="2.171"/><use xlink:href="#1" y="4.342"/><use xlink:href="#1" y="6.513"/><use xlink:href="#6" y="8.684"/></svg><svg x="1935"><use xlink:href="#a"/><use xlink:href="#b" x="9.996" y="10.83"/><use xlink:href="#3"/><use xlink:href="#4" y="2.171"/><use xlink:href="#1" y="4.342"/><use xlink:href="#1" y="6.513"/><use xlink:href="#6" y="8.684"/><use xlink:href="#1" y="10.855"/></svg><svg x="2064"><use xlink:href="#a"/><use xlink:href="#b" x="10.996" y="10.83"/><use xlink:href="#3"/><use xlink:href="#4" y="2.171"/><use xlink:href="#1" y="4.342"/><use xlink:href="#1" y="6.513"/><use xlink:href="#6" y="8.684"/><use xlink:href="#5" y="10.855"/></svg><svg x="2193"><use xlink:href="#a"/><use xlink:href="#b" x="11.996" y="10.83"/><use xlink:href="#3"/><use xlink:href="#4" y="2.171"/><use xlink:href="#1" y="4.342"/><use xlink:href="#1" y="6.513"/><use xlink:href="#6" y="8.684"/><use xlink:href="#6" y="10.855"/></svg><svg x="2322"><use xlink:href="#a"/><use xlink:href="#b" x="12.996" y="10.83"/><use xlink:href="#3"/><use xlink:href="#4" y="2.171"/><use xlink:href="#1" y="4.342"/><use xlink:href="#1" y="6.513"/><use xlink:href="#6" y="8.684"/><use xlink:href="#6" y="10.855"/></svg><svg x="2451"><use xlink:href="#a"/><use xlink:href="#b" x="13.996" y="10.83"/><use xlink:href="#3"/><use xlink:href="#4" y="2.171"/><use xlink:href="#1" y="4.342"/><use xlink:href="#1" y="6.513"/><use xlink:href="#6" y="8.684"/><text y="12.525" class="f">bash-3.2$</text><text x="10.02" y="12.525" class="f">cd</text><text x="13.026" y="12.525" class="f">w</text></svg><svg x="2580"><use xlink:href="#a"/><use xlink:href="#b" x="14.996" y="10.83"/><use xlink:href="#3"/><use xlink:href="#4" y="2.171"/><use xlink:href="#1" y="4.342"/><use xlink:href="#1" y="6.513"/><use xlink:href="#6" y="8.684"/><text y="12.525" class="f">bash-3.2$</text><text x="10.02" y="12.525" class="f">cd</text><text x="13.026" y="12.525" class="f">wo</text></svg><svg x="2709"><use xlink:href="#a"/><use xlink:href="#b" x="15.996" y="10.83"/><use xlink:href="#3"/><use xlink:href="#4" y="2.171"/><use xlink:href="#1" y="4.342"/><use xlink:href="#1" y="6.513"/><use xlink:href="#6" y="8.684"/><text y="12.525" class="f">bash-3.2$</text><text x="10.02" y="12.525" class="f">cd</text><text x="13.026" y="12.525" class="f">wor</text></svg><svg x="2838"><use xlink:href="#a"/><use xlink:href="#b" x="16.996" y="10.83"/><use xlink:href="#3"/><use xlink:href="#4" y="2.171"/><use xlink:href="#1" y="4.342"/><use xlink:href="#1" y="6.513"/><use xlink:href="#6" y="8.684"/><text y="12.525" class="f">bash-3.2$</text><text x="10.02" y="12.525" class="f">cd</text><text x="13.026" y="12.525" class="f">work</text></svg><svg x="2967"><use xlink:href="#a"/><use xlink:href="#b" x="17.996" y="10.83"/><use xlink:href="#3"/><use xlink:href="#4" y="2.171"/><use xlink:href="#1" y="4.342"/><use xlink:href="#1" y="6.513"/><use xlink:href="#6" y="8.684"/><use xlink:href="#7" y="10.855"/></svg><svg x="3096"><use xlink:href="#a"/><use xlink:href="#b" x="-.004" y="13.001"/><use xlink:href="#3"/><use xlink:href="#4" y="2.171"/><use xlink:href="#1" y="4.342"/><use xlink:href="#1" y="6.513"/><use xlink:href="#6" y="8.684"/><use xlink:href="#7" y="10.855"/></svg><svg x="3225"><use xlink:href="#a"/><use xlink:href="#b" x="9.996" y="13.001"/><use xlink:href="#3"/><use xlink:href="#4" y="2.171"/><use xlink:href="#1" y="4.342"/><use xlink:href="#1" y="6.513"/><use xlink:href="#6" y="8.684"/><use xlink:href="#7" y="10.855"/><use xlink:href="#1" y="13.026"/></svg><svg x="3354"><use xlink:href="#a"/><use xlink:href="#b" x="10.996" y="13.001"/><use xlink:href="#3"/><use xlink:href="#4" y="2.171"/><use xlink:href="#1" y="4.342"/><use xlink:href="#1" y="6.513"/><use xlink:href="#6" y="8.684"/><use xlink:href="#7" y="10.855"/><use xlink:href="#2" y="13.026"/></svg><svg x="3483"><use xlink:href="#a"/><use xlink:href="#b" x="11.996" y="13.001"/><use xlink:href="#3"/><use xlink:href="#4" y="2.171"/><use xlink:href="#1" y="4.342"/><use xlink:href="#1" y="6.513"/><use xlink:href="#6" y="8.684"/><use xlink:href="#7" y="10.855"/><use xlink:href="#3" y="13.026"/></svg><svg x="3612"><use xlink:href="#a"/><use xlink:href="#b" x="-.004" y="15.172"/><use xlink:href="#3"/><use xlink:href="#4" y="2.171"/><use xlink:href="#1" y="4.342"/><use xlink:href="#1" y="6.513"/><use xlink:href="#6" y="8.684"/><use xlink:href="#7" y="10.855"/><use xlink:href="#3" y="13.026"/></svg><svg x="3741"><use xlink:href="#a"/><use xlink:href="#b" x="-.004" y="30.369"/><use xlink:href="#3"/><use xlink:href="#4" y="2.171"/><use xlink:href="#1" y="4.342"/><use xlink:href="#1" y="6.513"/><use xlink:href="#6" y="8.684"/><use xlink:href="#7" y="10.855"/><use xlink:href="#3" y="13.026"/><use xlink:href="#8" y="15.197"/><use xlink:href="#9" y="17.368"/><use xlink:href="#10" y="19.539"/><use xlink:href="#11" y="21.71"/><use xlink:href="#12" y="23.881"/><use xlink:href="#13" y="26.052"/><use xlink:href="#14" y="28.223"/></svg><svg x="3870"><use xlink:href="#a"/><use xlink:href="#b" x="9.996" y="30.369"/><use xlink:href="#3"/><use xlink:href="#4" y="2.171"/><use xlink:href="#1" y="4.342"/><use xlink:href="#1" y="6.513"/><use xlink:href="#6" y="8.684"/><use xlink:href="#7" y="10.855"/><use xlink:href="#3" y="13.026"/><use xlink:href="#8" y="15.197"/><use xlink:href="#9" y="17.368"/><use xlink:href="#10" y="19.539"/><use xlink:href="#11" y="21.71"/><use xlink:href="#12" y="23.881"/><use xlink:href="#13" y="26.052"/><use xlink:href="#14" y="28.223"/><use xlink:href="#1" y="30.394"/></svg><svg x="3999"><use xlink:href="#a"/><use xlink:href="#b" x="10.996" y="30.369"/><use xlink:href="#3"/><use xlink:href="#4" y="2.171"/><use xlink:href="#1" y="4.342"/><use xlink:href="#1" y="6.513"/><use xlink:href="#6" y="8.684"/><use xlink:href="#7" y="10.855"/><use xlink:href="#3" y="13.026"/><use xlink:href="#8" y="15.197"/><use xlink:href="#9" y="17.368"/><use xlink:href="#10" y="19.539"/><use xlink:href="#11" y="21.71"/><use xlink:href="#12" y="23.881"/><use xlink:href="#13" y="26.052"/><use xlink:href="#14" y="28.223"/><use xlink:href="#5" y="30.394"/></svg><svg x="4128"><use xlink:href="#a"/><use xlink:href="#b" x="11.996" y="30.369"/><use xlink:href="#3"/><use xlink:href="#4" y="2.171"/><use xlink:href="#1" y="4.342"/><use xlink:href="#1" y="6.513"/><use xlink:href="#6" y="8.684"/><use xlink:href="#7" y="10.855"/><use xlink:href="#3" y="13.026"/><use xlink:href="#8" y="15.197"/><use xlink:href="#9" y="17.368"/><use xlink:href="#10" y="19.539"/><use xlink:href="#11" y="21.71"/><use xlink:href="#12" y="23.881"/><use xlink:href="#13" y="26.052"/><use xlink:href="#14" y="28.223"/><use xlink:href="#6" y="30.394"/></svg><svg x="4257"><use xlink:href="#a"/><use xlink:href="#b" x="12.996" y="30.369"/><use xlink:href="#3"/><use xlink:href="#4" y="2.171"/><use xlink:href="#1" y="4.342"/><use xlink:href="#1" y="6.513"/><use xlink:href="#6" y="8.684"/><use xlink:href="#7" y="10.855"/><use xlink:href="#3" y="13.026"/><use xlink:href="#8" y="15.197"/><use xlink:href="#9" y="17.368"/><use xlink:href="#10" y="19.539"/><use xlink:href="#11" y="21.71"/><use xlink:href="#12" y="23.881"/><use xlink:href="#13" y="26.052"/><use xlink:href="#14" y="28.223"/><use xlink:href="#6" y="30.394"/></svg><svg x="4386"><use xlink:href="#a"/><use xlink:href="#b" x="11.996" y="30.369"/><use xlink:href="#3"/><use xlink:href="#4" y="2.171"/><use xlink:href="#1" y="4.342"/><use xlink:href="#1" y="6.513"/><use xlink:href="#6" y="8.684"/><use xlink:href="#7" y="10.855"/><use xlink:href="#3" y="13.026"/><use xlink:href="#8" y="15.197"/><use xlink:href="#9" y="17.368"/><use xlink:href="#10" y="19.539"/><use xlink:href="#11" y="21.71"/><use xlink:href="#12" y="23.881"/><use xlink:href="#13" y="26.052"/><use xlink:href="#14" y="28.223"/><use xlink:href="#6" y="30.394"/></svg><svg x="4515"><use xlink:href="#a"/><use xlink:href="#b" x="10.996" y="30.369"/><use xlink:href="#3"/><use xlink:href="#4" y="2.171"/><use xlink:href="#1" y="4.342"/><use xlink:href="#1" y="6.513"/><use xlink:href="#6" y="8.684"/><use xlink:href="#7" y="10.855"/><use xlink:href="#3" y="13.026"/><use xlink:href="#8" y="15.197"/><use xlink:href="#9" y="17.368"/><use xlink:href="#10" y="19.539"/><use xlink:href="#11" y="21.71"/><use xlink:href="#12" y="23.881"/><use xlink:href="#13" y="26.052"/><use xlink:href="#14" y="28.223"/><use xlink:href="#5" y="30.394"/></svg><svg x="4644"><use xlink:href="#a"/><use xlink:href="#b" x="9.996" y="30.369"/><use xlink:href="#3"/><use xlink:href="#4" y="2.171"/><use xlink:href="#1" y="4.342"/><use xlink:href="#1" y="6.513"/><use xlink:href="#6" y="8.684"/><use xlink:href="#7" y="10.855"/><use xlink:href="#3" y="13.026"/><use xlink:href="#8" y="15.197"/><use xlink:href="#9" y="17.368"/><use xlink:href="#10" y="19.539"/><use xlink:href="#11" y="21.71"/><use xlink:href="#12" y="23.881"/><use xlink:href="#13" y="26.052"/><use xlink:href="#14" y="28.223"/><use xlink:href="#1" y="30.394"/></svg><svg x="4773"><use xlink:href="#a"/><use xlink:href="#b" x="9.996" y="30.369"/><use xlink:href="#3"/><use xlink:href="#4" y="2.171"/><use xlink:href="#1" y="4.342"/><use xlink:href="#1" y="6.513"/><use xlink:href="#6" y="8.684"/><use xlink:href="#7" y="10.855"/><use xlink:href="#3" y="13.026"/><use xlink:href="#8" y="15.197"/><use xlink:href="#9" y="17.368"/><use xlink:href="#10" y="19.539"/><use xlink:href="#11" y="21.71"/><use xlink:href="#12" y="23.881"/><use xlink:href="#13" y="26.052"/><use xlink:href="#14" y="28.223"/><use xlink:href="#1" y="30.394"/></svg><svg x="4902"><use xlink:href="#a"/><use xlink:href="#b" x="-.004" y="32.54"/><use xlink:href="#3"/><use xlink:href="#4" y="2.171"/><use xlink:href="#1" y="4.342"/><use xlink:href="#1" y="6.513"/><use xlink:href="#6" y="8.684"/><use xlink:href="#7" y="10.855"/><use xlink:href="#3" y="13.026"/><use xlink:href="#8" y="15.197"/><use xlink:href="#9" y="17.368"/><use xlink:href="#10" y="19.539"/><use xlink:href="#11" y="21.71"/><use xlink:href="#12" y="23.881"/><use xlink:href="#13" y="26.052"/><use xlink:href="#14" y="28.223"/><text y="32.064" class="f">bash-3.2$</text><text x="10.02" y="32.064" class="f">exit</text></svg></svg></g></g></svg></svg>